<svg width="797" height="600" xmlns="http://www.w3.org/2000/svg">
 <!-- Created with Method Draw - http://github.com/duopixel/Method-Draw/ -->
 <g id="Layer_1">
  <title>Layer 1</title>
  <path transform="translate(394,87.4) scale(0.005) translate(-394,-87.4)" id="svg_16" d="m249.26614,455.16723l35.90505,0l11.09494,-97.78355l11.09494,97.78355l35.90505,0l-29.04775,60.43286l11.09551,97.78355l-29.04776,-60.43451l-29.04775,60.43451l11.09552,-97.78355l-29.04775,-60.43286z" opacity="undefined" stroke-opacity="null" stroke-dasharray="null" stroke-width="0" stroke="#ea19ea" fill="#ffff00"/>
  <path stroke="#ea19ea" id="svg_18" d="m85.81632,449.02914l623.91651,0.18014l-20.24624,22.62857l-583.185,-0.5404l-20.4853,-22.26831l0.00003,0zm4.28762,-301.01132l615.57944,-0.5404l17.8648,23.21346l-651.54753,0.18014l18.10328,-22.8532zm-60.75017,150.83271l736.60308,-0.5404l-0.95215,23.21348l-735.17454,-0.36026l-0.47639,-22.31282zm737.21283,2.15303c0,153.67866 -165.35091,278.69781 -368.62804,278.69781c-203.18931,0 -368.5094,-125.04175 -368.5094,-278.69781c0,-153.65681 165.34997,-278.67595 368.5094,-278.67595c203.27716,-0.02258 368.62804,125.01913 368.62804,278.67595zm-368.59909,-301.01134c-219.40901,0 -397.95518,135.02104 -397.95518,300.9887c0,165.99028 178.54619,301.0113 397.95518,301.0113c219.52848,0 398.04484,-135.02102 398.04484,-301.0113c0,-165.96766 -178.51634,-300.9887 -398.04484,-300.9887zm111.67739,301.01134c0,164.21844 -58.83369,278.69781 -111.67739,278.69781c-52.78391,0 -111.61667,-114.47937 -111.61667,-278.69781c0,-164.26365 58.80376,-278.67595 111.61667,-278.67595c52.81387,-0.02258 111.67739,114.41229 111.67739,278.67595zm-111.67739,-301.01134c-91.65945,0 -141.12221,155.09121 -141.12221,300.9887c0,145.94204 49.46276,301.0113 141.12221,301.0113c91.66038,0 141.21278,-155.09181 141.21278,-301.0113c-0.02988,-145.8975 -49.5524,-300.9887 -141.21278,-300.9887zm261.54792,301.01134c0,153.67866 -117.37049,278.69781 -261.54792,278.69781c-144.14747,0 -261.45825,-125.04175 -261.45825,-278.69781c0,-153.65681 117.31078,-278.67595 261.45825,-278.67595c144.17743,-0.02258 261.54792,125.01913 261.54792,278.67595zm-261.54792,-301.01134c-160.39799,0 -290.96377,135.02104 -290.96377,300.9887c0,165.99028 130.56578,301.0113 290.96377,301.0113c160.45775,0 290.99455,-135.02102 290.99455,-301.0113c0,-165.96766 -130.53681,-300.9887 -290.99455,-300.9887z" opacity="undefined" stroke-opacity="null" stroke-dasharray="null" stroke-width="0" fill="#0099ff"/>
 </g>
</svg>